<?xml version="1.0" standalone="no"?>
<!DOCTYPE svg PUBLIC "-//W3C//DTD SVG 20010904//EN"
 "http://www.w3.org/TR/2001/REC-SVG-20010904/DTD/svg10.dtd">
<svg version="1.0" xmlns="http://www.w3.org/2000/svg"
 width="1747.000000pt" height="1610.000000pt" viewBox="0 0 1747.000000 1610.000000"
 preserveAspectRatio="xMidYMid meet">

<g transform="translate(0.000000,1610.000000) scale(0.100000,-0.100000)"
fill="#000000" stroke="none">
<path d="M70 16081 c-15 -29 -12 -88 6 -124 10 -18 74 -90 143 -162 70 -71
142 -150 161 -174 l34 -44 -39 7 c-22 3 -74 12 -115 20 -79 15 -226 16 -248 3
-7 -5 -12 -28 -12 -55 l0 -47 96 -75 c126 -99 308 -288 378 -393 137 -205 181
-390 141 -582 -37 -174 -142 -474 -200 -572 -63 -107 -152 -365 -141 -409 3
-12 -7 -85 -23 -163 -95 -455 -57 -766 146 -1216 106 -235 204 -386 338 -521
88 -88 221 -185 300 -219 196 -83 437 -118 561 -80 27 8 49 15 50 15 1 0 4
-28 8 -61 21 -203 245 -682 549 -1177 l69 -112 -40 -68 c-115 -194 -193 -395
-210 -537 -19 -163 8 -548 54 -768 47 -223 132 -425 234 -554 102 -128 336
-281 710 -464 124 -61 268 -132 320 -157 243 -120 435 -283 506 -428 21 -44
42 -81 45 -84 11 -8 39 -124 39 -160 0 -18 -13 -72 -30 -121 -55 -163 -84
-209 -266 -409 -280 -307 -461 -513 -536 -607 -111 -139 -243 -345 -313 -487
-115 -237 -167 -445 -167 -661 1 -356 130 -555 467 -720 150 -74 284 -122 457
-164 189 -46 474 -91 668 -106 47 -4 96 -8 109 -11 161 -25 1151 -25 1312 1
13 2 60 6 104 9 392 31 946 122 1385 227 l125 30 22 -28 c13 -15 113 -158 224
-318 111 -159 304 -436 429 -615 468 -671 698 -1002 1105 -1585 230 -330 452
-649 494 -708 76 -110 142 -173 279 -266 152 -103 340 -171 479 -174 103 -2
124 11 178 119 36 71 40 86 39 149 -1 87 -36 193 -101 308 -25 45 -132 213
-236 372 -184 283 -344 528 -615 945 -118 181 -191 294 -481 740 -38 58 -155
238 -261 400 -105 162 -217 334 -248 383 -32 48 -112 172 -180 275 -67 103
-136 208 -152 234 l-29 47 82 27 c1024 336 2406 968 3577 1636 870 496 1777
1099 2280 1519 234 194 746 698 1036 1019 749 829 1427 1781 1819 2555 303
599 456 1095 481 1565 10 201 -33 372 -148 590 -341 644 -1071 1164 -2014
1434 -458 131 -1008 217 -1549 243 -274 13 -1461 5 -1595 -11 -19 -3 -84 -7
-145 -11 -60 -4 -126 -8 -145 -10 -19 -2 -69 -6 -110 -10 -41 -3 -91 -8 -110
-10 -19 -2 -100 -11 -180 -20 -80 -8 -154 -17 -165 -19 -11 -2 -47 -7 -80 -10
-225 -26 -808 -128 -1155 -202 -840 -180 -1871 -477 -2667 -770 -899 -331
-1599 -687 -2743 -1397 -150 -93 -826 -540 -929 -615 -20 -14 9 -58 -592 933
-106 176 -202 327 -213 335 -52 41 -147 93 -196 107 -60 18 -157 22 -233 11
-43 -7 -48 -6 -43 10 8 27 53 327 66 437 6 55 13 114 15 130 2 17 7 73 10 125
4 52 9 106 11 120 2 14 6 124 8 245 4 160 1 240 -9 294 -47 256 -184 439 -481
641 -141 97 -266 168 -689 395 -553 296 -840 482 -1172 756 -99 82 -125 93
-143 60z m753 -578 c435 -292 590 -397 835 -566 161 -110 173 -122 169 -146
-7 -35 18 -80 105 -188 41 -51 84 -112 96 -136 24 -48 30 -125 10 -132 -7 -2
-119 -6 -248 -9 -300 -6 -359 -22 -346 -91 4 -16 9 -61 12 -100 3 -38 7 -82 9
-97 2 -15 1 -37 -2 -48 -11 -41 -46 -18 -111 70 -104 141 -138 176 -205 210
l-62 31 -13 -31 c-27 -68 -85 -274 -116 -420 l-33 -154 -32 83 c-30 77 -81
251 -111 379 -11 46 -15 53 -32 49 -15 -4 -18 -2 -13 11 3 9 18 62 32 117 64
258 26 601 -88 791 -38 63 -140 164 -197 194 l-37 20 53 -6 c71 -8 132 10 172
51 l32 33 -122 154 c-68 84 -130 161 -138 171 -8 9 -12 17 -8 17 4 0 179 -115
389 -257z m1395 -1041 c80 -125 142 -311 167 -499 24 -179 19 -268 -26 -557
-46 -297 -48 -392 -9 -504 12 -35 21 -64 19 -65 -2 -1 -39 -20 -82 -41 -55
-27 -104 -63 -163 -119 -230 -217 -377 -579 -469 -1155 -4 -23 -10 -40 -13
-38 -4 2 -54 7 -112 11 -318 20 -547 121 -746 327 -101 105 -179 217 -252 363
-104 208 -150 384 -159 610 -11 295 44 530 273 1148 l58 159 23 -109 c44 -212
117 -401 207 -536 29 -44 41 -55 47 -44 24 43 109 567 109 673 0 29 3 54 8 54
20 0 75 -45 123 -101 138 -162 195 -191 307 -160 l42 12 0 117 c0 73 -4 122
-11 129 -11 11 -15 124 -5 141 4 6 30 3 67 -9 80 -25 177 -36 335 -38 151 -2
177 5 205 61 22 43 26 132 10 188 -25 81 -14 77 47 -18z m10612 -134 c0 -9 3
-8 10 2 5 8 10 10 10 5 0 -7 158 -10 458 -10 411 0 664 -6 792 -20 459 -49
582 -68 876 -131 996 -213 1787 -699 2132 -1309 101 -178 142 -314 142 -474 1
-521 -358 -1326 -1063 -2386 -639 -959 -1299 -1762 -1887 -2295 -296 -267
-888 -719 -1420 -1081 -970 -662 -2221 -1348 -3305 -1812 -1213 -520 -2424
-866 -3525 -1007 -47 -6 -96 -13 -110 -15 -14 -2 -72 -9 -130 -15 -58 -6 -121
-13 -140 -15 -347 -43 -1303 -56 -1640 -22 -403 41 -648 98 -859 199 -233 111
-332 288 -317 563 21 379 221 773 732 1440 355 463 372 486 407 554 49 93 85
198 90 262 10 127 -37 300 -112 417 -103 159 -214 243 -588 447 -328 179 -377
208 -491 282 -355 233 -508 453 -568 818 -19 120 -15 318 11 440 28 135 133
426 154 425 3 0 60 -82 126 -182 436 -662 1225 -1740 2138 -2922 131 -170 241
-315 244 -322 3 -8 -8 -31 -25 -51 -164 -209 -267 -531 -233 -734 19 -117 75
-210 170 -283 219 -169 617 -253 1191 -254 227 0 343 9 530 39 645 103 1366
441 2068 969 234 176 340 267 513 439 230 231 289 314 289 412 0 219 -185 512
-418 663 -232 151 -510 204 -947 183 -148 -8 -181 -10 -320 -22 -471 -41
-1031 -182 -1429 -360 -32 -14 -60 -25 -61 -23 -2 2 -54 89 -117 193 -63 105
-233 386 -378 625 -144 239 -302 500 -350 580 -48 80 -178 295 -289 478 -110
184 -201 337 -201 341 0 4 35 16 78 25 249 59 460 171 636 337 206 195 311
407 320 649 13 320 -173 559 -485 624 -79 17 -321 20 -452 6 -317 -33 -609
-149 -821 -327 -22 -18 -43 -33 -47 -33 -4 0 -16 15 -26 33 -11 17 -84 137
-161 265 -78 128 -142 236 -142 240 1 8 113 99 304 246 873 673 2216 1414
3466 1916 1180 473 2442 799 3575 924 186 21 345 36 435 41 58 4 115 8 128 10
12 2 106 7 210 11 103 3 188 8 190 9 1 1 144 3 317 4 247 1 315 -2 315 -11z
m-10142 -1693 c89 -41 116 -69 192 -198 40 -67 150 -253 245 -412 96 -160 175
-296 177 -303 2 -9 -21 -20 -71 -33 -481 -128 -782 -429 -879 -880 -42 -195
-49 -346 -26 -594 4 -38 5 -68 2 -65 -10 9 -105 165 -193 315 -100 171 -238
442 -286 560 -60 152 -70 193 -63 275 23 292 128 678 251 925 56 111 102 181
166 252 141 153 349 221 485 158z m814 -1232 c52 -87 269 -450 483 -808 213
-357 427 -715 475 -795 48 -80 262 -437 475 -795 213 -357 421 -704 460 -770
386 -641 863 -1447 923 -1560 61 -117 80 -164 113 -288 22 -81 62 -221 89
-312 55 -182 37 -149 299 -544 77 -118 141 -218 141 -222 0 -13 -427 -141
-442 -133 -4 3 -70 91 -147 198 -130 178 -145 195 -198 223 -77 41 -118 51
-243 58 -143 8 -206 25 -288 74 -33 20 -126 129 -386 456 -1162 1460 -1967
2531 -2584 3438 -153 224 -155 230 -186 417 -62 379 -39 610 85 838 125 234
374 455 706 628 57 30 109 54 117 54 8 0 57 -71 108 -157z m1863 -674 c101
-13 203 -44 269 -83 152 -89 179 -279 72 -511 -81 -175 -272 -408 -413 -503
-121 -82 -351 -178 -372 -156 -10 10 -98 154 -387 631 l-183 303 57 51 c259
232 563 317 957 268z m2835 -3380 c423 -38 721 -148 906 -333 94 -94 127 -154
132 -242 18 -281 -362 -623 -1093 -984 -362 -178 -859 -389 -882 -373 -21 14
-416 634 -480 753 -139 258 -185 354 -208 434 -34 119 -110 307 -147 368 -37
59 -46 49 117 119 323 137 633 215 1010 253 148 15 504 18 645 5z m-2957
-1492 c46 -56 122 -153 170 -215 47 -63 101 -125 119 -138 51 -38 151 -64 283
-75 140 -10 206 -28 261 -67 41 -30 191 -228 181 -239 -20 -19 -242 -37 -472
-37 -540 0 -794 92 -840 304 -11 51 -8 165 6 208 28 89 138 307 181 359 14 18
17 15 111 -100z m2848 -2257 c101 -154 261 -396 354 -538 94 -142 340 -516
548 -832 208 -316 432 -656 497 -755 65 -99 201 -306 302 -460 144 -219 207
-306 295 -404 110 -122 115 -130 169 -267 5 -12 -58 -44 -87 -44 -63 0 -162
89 -261 233 -59 87 -243 339 -1018 1397 -180 245 -512 699 -740 1010 -227 311
-458 625 -512 699 -54 74 -96 136 -94 139 7 6 327 100 347 101 10 1 81 -97
200 -279z"/>
<path d="M11390 13534 c-288 -39 -530 -149 -715 -326 -176 -167 -283 -338
-293 -467 -4 -65 -2 -76 30 -143 61 -128 263 -358 409 -464 222 -163 390 -207
706 -184 316 22 537 79 758 193 207 108 400 299 485 482 62 131 75 243 45 386
-63 298 -358 475 -880 528 -131 13 -435 11 -545 -5z m443 -240 c294 -23 506
-69 632 -139 105 -58 135 -107 135 -218 0 -233 -139 -459 -368 -598 -208 -125
-497 -189 -842 -185 -164 2 -192 5 -250 25 -234 83 -497 271 -550 392 -26 62
-22 98 22 184 95 187 284 388 449 479 114 63 185 76 409 74 107 -1 271 -7 363
-14z"/>
<path d="M15230 13004 c-90 -11 -256 -47 -327 -70 -394 -128 -711 -438 -938
-917 -98 -208 -141 -384 -132 -551 6 -127 26 -182 88 -251 86 -94 178 -125
384 -130 423 -10 808 93 1110 299 109 74 297 258 387 380 130 174 208 361 230
547 10 87 9 108 -6 176 -58 251 -222 439 -436 499 -54 15 -288 27 -360 18z
m171 -254 c137 -20 253 -71 316 -138 14 -15 38 -52 52 -82 22 -47 26 -68 26
-150 0 -148 -58 -303 -168 -450 -300 -403 -707 -598 -1307 -627 -143 -7 -173
3 -242 74 -78 81 -93 159 -58 315 84 383 287 714 543 890 224 153 527 214 838
168z"/>
<path d="M8077 12719 c-394 -43 -728 -218 -969 -508 -201 -242 -303 -456 -282
-591 15 -91 99 -188 239 -276 171 -106 492 -233 695 -275 91 -18 126 -20 265
-15 374 13 648 122 888 355 152 146 237 273 289 431 30 89 32 104 32 245 1
141 -1 154 -25 211 -126 294 -446 441 -939 432 -69 -1 -156 -5 -193 -9z m357
-259 c202 -23 375 -83 458 -158 127 -115 121 -318 -16 -524 -139 -210 -340
-366 -569 -442 -284 -94 -674 -80 -962 34 -223 89 -335 178 -335 268 0 71 59
179 180 332 238 298 484 458 768 499 73 11 348 5 476 -9z"/>
<path d="M13009 9675 c-345 -48 -632 -196 -884 -456 -211 -217 -395 -504 -478
-742 -30 -87 -32 -100 -32 -237 0 -170 9 -204 71 -270 90 -97 239 -141 489
-146 193 -4 291 10 460 67 262 87 495 245 740 500 238 249 380 455 434 631 24
80 34 239 19 318 -30 167 -156 282 -354 326 -95 20 -345 26 -465 9z m373 -229
c80 -18 154 -49 186 -79 48 -44 57 -75 57 -192 0 -109 0 -111 -42 -195 -23
-47 -72 -125 -109 -174 -81 -106 -291 -325 -389 -406 -302 -247 -636 -373
-990 -374 -170 -1 -236 14 -299 66 -52 43 -69 82 -70 158 -1 57 5 76 45 160
133 278 445 665 665 827 157 115 354 199 524 223 87 12 338 3 422 -14z"/>
</g>
</svg>
